<svg width="16" height="14" viewBox="0 0 16 14" fill="none" xmlns="http://www.w3.org/2000/svg">
<path d="M12.375 0.900391C13.8801 0.900391 15.0996 2.15904 15.0996 3.7002V10.2998C15.0996 11.841 13.8801 13.0996 12.375 13.0996H3.625C2.11988 13.0996 0.900391 11.841 0.900391 10.2998V3.7002C0.900391 2.15904 2.11988 0.900391 3.625 0.900391H12.375ZM1.78125 3.07617C1.71809 3.27263 1.68359 3.48221 1.68359 3.7002V10.2998C1.68359 11.4053 2.55703 12.2998 3.625 12.2998H12.375C13.443 12.2998 14.3164 11.4053 14.3164 10.2998L14.3174 3.7002C14.3174 3.48237 14.2808 3.27348 14.2178 3.07715L9.93945 7.47852C9.42381 8.00889 8.71078 8.29972 7.98633 8.2998C7.26061 8.2998 6.57643 8.00812 6.06152 7.47852L1.78125 3.07617ZM3.625 1.7002C3.05632 1.7002 2.55063 1.95984 2.19434 2.36621L6.61719 6.91504C6.98546 7.29322 7.49095 7.4891 8 7.49902C8.52103 7.49871 9.01679 7.29195 9.38379 6.91504L13.8047 2.36621C13.4484 1.96013 12.9429 1.7002 12.375 1.7002H3.625Z" fill="black" stroke="black" stroke-width="0.2"/>
</svg>
